<svg width="241" height="292" viewBox="0 0 241 292" fill="none" xmlns="http://www.w3.org/2000/svg">
<path d="M133.404 87.4818C132.287 61.8855 158.084 51.754 157.937 34.8359" stroke="black" stroke-width="10" stroke-linecap="round"/>
<path d="M28.0684 108.277H198.309V193.94C198.309 225.145 173.013 250.441 141.809 250.441H84.5684C53.3643 250.441 28.0684 225.145 28.0684 193.941V108.277Z" stroke="black" stroke-width="7"/>
<path d="M3.64961 250.668H222.727C220.953 271.326 203.623 287.539 182.506 287.539H43.8716C22.7541 287.539 5.4236 271.326 3.64961 250.668Z" stroke="black" stroke-width="7"/>
<mask id="path-4-inside-1_828_29" fill="white">
<path d="M194.789 127.086C194.789 126.534 195.237 126.086 195.789 126.086H225.415C233.7 126.086 240.415 132.802 240.415 141.086V163.3C240.415 185.391 222.507 203.3 200.415 203.3H195.789C195.237 203.3 194.789 202.852 194.789 202.3V127.086Z"/>
</mask>
<path d="M194.789 127.086C194.789 126.534 195.237 126.086 195.789 126.086H225.415C233.7 126.086 240.415 132.802 240.415 141.086V163.3C240.415 185.391 222.507 203.3 200.415 203.3H195.789C195.237 203.3 194.789 202.852 194.789 202.3V127.086Z" stroke="black" stroke-width="14" mask="url(#path-4-inside-1_828_29)"/>
<path d="M89.5524 87.4785C87.8305 47.3777 127.568 31.505 127.341 5" stroke="black" stroke-width="10" stroke-linecap="round"/>
<path d="M53.0449 213.504L52.9346 201.476L81.626 175.102C89.1299 167.929 93.1025 163.515 93.1025 157.225C93.1025 150.162 87.6953 145.748 80.4121 145.748C72.9082 145.748 68.0527 150.493 68.0527 158.107H52.2725C52.1621 142.438 63.749 132.506 80.6328 132.506C97.7373 132.506 109.104 142.217 109.104 156.121C109.104 165.17 104.689 172.674 88.2471 187.571L76.1084 199.379V199.82H110.207V213.504H53.0449ZM111.015 199.379V186.247L144.782 133.609H165.639V186.026H175.791V199.379H165.639V213.504H149.859V199.379H111.015ZM127.788 186.026H150.079V151.817H149.307L127.788 185.364V186.026Z" fill="url(#paint0_linear_828_29)"/>
<defs>
<linearGradient id="paint0_linear_828_29" x1="76.0157" y1="218.956" x2="117.101" y2="116.056" gradientUnits="userSpaceOnUse">
<stop stop-color="#F6C744"/>
<stop offset="0.2" stop-color="#ED6D32"/>
<stop offset="0.4" stop-color="#EC6037"/>
<stop offset="0.6" stop-color="#EA3B58"/>
<stop offset="0.8" stop-color="#EA3566"/>
<stop offset="1" stop-color="#CB4CC9"/>
</linearGradient>
</defs>
</svg>
